<mxfile host="app.diagrams.net" agent="Mozilla/5.0 (Windows NT 10.0; Win64; x64) AppleWebKit/537.36 (KHTML, like Gecko) Chrome/130.0.0.0 Safari/537.36" version="24.8.6">
  <diagram name="Trang-1" id="4NoruhUl2Aum7RLN5TR2">
    <mxGraphModel grid="1" page="1" gridSize="10" guides="1" tooltips="1" connect="1" arrows="1" fold="1" pageScale="1" pageWidth="827" pageHeight="1169" math="0" shadow="0">
      <root>
        <mxCell id="0" />
        <mxCell id="1" parent="0" />
        <mxCell id="O6aBJ8SSzz_dJsh0OF6S-3" value="" style="edgeStyle=orthogonalEdgeStyle;rounded=0;orthogonalLoop=1;jettySize=auto;html=1;" edge="1" parent="1" source="O6aBJ8SSzz_dJsh0OF6S-1" target="O6aBJ8SSzz_dJsh0OF6S-2">
          <mxGeometry relative="1" as="geometry" />
        </mxCell>
        <mxCell id="O6aBJ8SSzz_dJsh0OF6S-1" value="Bắt đầu" style="ellipse;whiteSpace=wrap;html=1;" vertex="1" parent="1">
          <mxGeometry x="354" y="30" width="120" height="80" as="geometry" />
        </mxCell>
        <mxCell id="O6aBJ8SSzz_dJsh0OF6S-4" style="edgeStyle=orthogonalEdgeStyle;rounded=0;orthogonalLoop=1;jettySize=auto;html=1;" edge="1" parent="1" source="O6aBJ8SSzz_dJsh0OF6S-2">
          <mxGeometry relative="1" as="geometry">
            <mxPoint x="414" y="260" as="targetPoint" />
          </mxGeometry>
        </mxCell>
        <mxCell id="O6aBJ8SSzz_dJsh0OF6S-2" value="Nhập a,b" style="shape=parallelogram;perimeter=parallelogramPerimeter;whiteSpace=wrap;html=1;fixedSize=1;" vertex="1" parent="1">
          <mxGeometry x="354" y="170" width="120" height="60" as="geometry" />
        </mxCell>
        <mxCell id="O6aBJ8SSzz_dJsh0OF6S-8" value="đúng" style="edgeStyle=orthogonalEdgeStyle;rounded=0;orthogonalLoop=1;jettySize=auto;html=1;" edge="1" parent="1" source="O6aBJ8SSzz_dJsh0OF6S-5" target="O6aBJ8SSzz_dJsh0OF6S-7">
          <mxGeometry relative="1" as="geometry" />
        </mxCell>
        <mxCell id="O6aBJ8SSzz_dJsh0OF6S-9" value="sai" style="edgeStyle=orthogonalEdgeStyle;rounded=0;orthogonalLoop=1;jettySize=auto;html=1;" edge="1" parent="1" source="O6aBJ8SSzz_dJsh0OF6S-5" target="O6aBJ8SSzz_dJsh0OF6S-6">
          <mxGeometry relative="1" as="geometry" />
        </mxCell>
        <mxCell id="O6aBJ8SSzz_dJsh0OF6S-5" value="a=0" style="rhombus;whiteSpace=wrap;html=1;" vertex="1" parent="1">
          <mxGeometry x="374" y="260" width="80" height="80" as="geometry" />
        </mxCell>
        <mxCell id="O6aBJ8SSzz_dJsh0OF6S-6" value="pt vô nghiệm -b/a" style="shape=parallelogram;perimeter=parallelogramPerimeter;whiteSpace=wrap;html=1;fixedSize=1;" vertex="1" parent="1">
          <mxGeometry x="190" y="270" width="120" height="60" as="geometry" />
        </mxCell>
        <mxCell id="O6aBJ8SSzz_dJsh0OF6S-11" value="đúng" style="edgeStyle=orthogonalEdgeStyle;rounded=0;orthogonalLoop=1;jettySize=auto;html=1;" edge="1" parent="1" source="O6aBJ8SSzz_dJsh0OF6S-7" target="O6aBJ8SSzz_dJsh0OF6S-10">
          <mxGeometry relative="1" as="geometry" />
        </mxCell>
        <mxCell id="O6aBJ8SSzz_dJsh0OF6S-13" value="" style="edgeStyle=orthogonalEdgeStyle;rounded=0;orthogonalLoop=1;jettySize=auto;html=1;" edge="1" parent="1" source="O6aBJ8SSzz_dJsh0OF6S-7" target="O6aBJ8SSzz_dJsh0OF6S-12">
          <mxGeometry relative="1" as="geometry" />
        </mxCell>
        <mxCell id="O6aBJ8SSzz_dJsh0OF6S-7" value="b=0" style="rhombus;whiteSpace=wrap;html=1;" vertex="1" parent="1">
          <mxGeometry x="534" y="260" width="80" height="80" as="geometry" />
        </mxCell>
        <mxCell id="O6aBJ8SSzz_dJsh0OF6S-19" style="edgeStyle=orthogonalEdgeStyle;rounded=0;orthogonalLoop=1;jettySize=auto;html=1;entryX=0.967;entryY=0.6;entryDx=0;entryDy=0;entryPerimeter=0;" edge="1" parent="1" source="O6aBJ8SSzz_dJsh0OF6S-10" target="O6aBJ8SSzz_dJsh0OF6S-16">
          <mxGeometry relative="1" as="geometry">
            <mxPoint x="580" y="560" as="targetPoint" />
            <Array as="points">
              <mxPoint x="710" y="570" />
              <mxPoint x="506" y="570" />
            </Array>
          </mxGeometry>
        </mxCell>
        <mxCell id="O6aBJ8SSzz_dJsh0OF6S-10" value="pt vô số nghiệm" style="shape=parallelogram;perimeter=parallelogramPerimeter;whiteSpace=wrap;html=1;fixedSize=1;" vertex="1" parent="1">
          <mxGeometry x="650" y="270" width="120" height="60" as="geometry" />
        </mxCell>
        <mxCell id="O6aBJ8SSzz_dJsh0OF6S-20" style="edgeStyle=orthogonalEdgeStyle;rounded=0;orthogonalLoop=1;jettySize=auto;html=1;" edge="1" parent="1" source="O6aBJ8SSzz_dJsh0OF6S-12">
          <mxGeometry relative="1" as="geometry">
            <mxPoint x="574" y="570" as="targetPoint" />
          </mxGeometry>
        </mxCell>
        <mxCell id="O6aBJ8SSzz_dJsh0OF6S-12" value="pt vô nghiệm" style="shape=parallelogram;perimeter=parallelogramPerimeter;whiteSpace=wrap;html=1;fixedSize=1;" vertex="1" parent="1">
          <mxGeometry x="514" y="430" width="120" height="60" as="geometry" />
        </mxCell>
        <mxCell id="O6aBJ8SSzz_dJsh0OF6S-16" value="Kết thúc" style="ellipse;whiteSpace=wrap;html=1;" vertex="1" parent="1">
          <mxGeometry x="390" y="520" width="120" height="80" as="geometry" />
        </mxCell>
        <mxCell id="O6aBJ8SSzz_dJsh0OF6S-17" style="edgeStyle=orthogonalEdgeStyle;rounded=0;orthogonalLoop=1;jettySize=auto;html=1;entryX=-0.008;entryY=0.6;entryDx=0;entryDy=0;entryPerimeter=0;" edge="1" parent="1" source="O6aBJ8SSzz_dJsh0OF6S-6" target="O6aBJ8SSzz_dJsh0OF6S-16">
          <mxGeometry relative="1" as="geometry">
            <Array as="points">
              <mxPoint x="240" y="568" />
            </Array>
          </mxGeometry>
        </mxCell>
      </root>
    </mxGraphModel>
  </diagram>
</mxfile>
